<svg width="164" height="161" viewBox="0 0 164 161" fill="none" xmlns="http://www.w3.org/2000/svg">
<path fill-rule="evenodd" clip-rule="evenodd" d="M82 133C108.51 133 130 111.51 130 85C130 58.4903 108.51 37 82 37C55.4903 37 34 58.4903 34 85C34 111.51 55.4903 133 82 133ZM104.243 77.2426C106.586 74.8995 106.586 71.1005 104.243 68.7574C101.899 66.4142 98.1005 66.4142 95.7574 68.7574L76 88.5147L68.2426 80.7574C65.8995 78.4142 62.1005 78.4142 59.7574 80.7574C57.4142 83.1005 57.4142 86.8995 59.7574 89.2426L71.7574 101.243C74.1005 103.586 77.8995 103.586 80.2426 101.243L104.243 77.2426Z" fill="#FF3A0A"/>
<circle cx="70" cy="5" r="5" fill="#FF3A0A"/>
<circle cx="33" cy="30" r="4" fill="#FF3A0A"/>
<circle cx="8" cy="49" r="6" fill="#FF3A0A"/>
<circle cx="13" cy="106" r="6" fill="#FF3A0A"/>
<circle cx="4" cy="126" r="4" fill="#FF3A0A"/>
<circle cx="65" cy="156" r="5" fill="#FF3A0A"/>
<circle cx="141" cy="144" r="7" fill="#FF3A0A"/>
<circle cx="134" cy="129" r="4" fill="#FF3A0A"/>
<circle cx="158" cy="95" r="6" fill="#FF3A0A"/>
<circle cx="140" cy="39" r="5" fill="#FF3A0A"/>
<circle cx="120" cy="27" r="4" fill="#FF3A0A"/>
</svg>
