<svg width="110" height="110" viewBox="0 0 110 110" fill="none" xmlns="http://www.w3.org/2000/svg">
<rect width="110" height="110" rx="10" fill="white"/>
<path d="M45.7959 83.3308L42.7533 85.5965C41.9839 86.1694 41.8909 87.287 42.5549 87.9793L45.4634 91.0115C46.847 92.4539 48.5362 93.568 50.407 94.2719C53.3724 95.3876 56.6449 95.412 59.6284 94.3456C61.7238 93.5966 63.6051 92.3363 65.0931 90.6817L67.6757 87.8097C68.2286 87.1949 68.1487 86.2411 67.5012 85.7268L64.8492 83.6202C63.5095 82.5562 62.0041 81.7195 60.3932 81.1437C56.9111 79.8991 53.0934 79.9333 49.6325 81.2354C48.2629 81.7508 46.9696 82.4568 45.7959 83.3308Z" fill="#FF3A0A"/>
<path d="M22.5181 67.1331L26.5574 76.0366C27.3058 77.6863 29.3717 78.246 30.8506 77.1998L34.366 74.7129C38.4275 71.8397 43.0304 69.8217 47.8954 68.7813L48.7434 68.6C53.3809 67.6082 58.1785 67.6347 62.8049 68.6775C67.7098 69.7831 72.2945 72.0023 76.2044 75.1634L78.8028 77.2642C80.0155 78.2447 81.8292 77.797 82.4464 76.3648L87.2371 65.2495C88.0841 63.2842 87.5925 60.9981 86.0124 59.5548L84.6391 58.3003C79.5637 53.6642 73.4426 50.3241 66.7976 48.5647C59.5809 46.654 51.9891 46.6717 44.7814 48.616L43.4624 48.9719C37.8959 50.4735 32.6473 52.971 27.9709 56.3434L24.7759 58.6474C22.0992 60.5778 21.1546 64.1277 22.5181 67.1331Z" fill="#FF3A0A"/>
<path d="M12.3257 39.7888L13.1545 43.8284C13.7196 46.583 16.82 47.9715 19.2514 46.559L26.4861 42.3561C31.2263 39.6023 36.3312 37.5307 41.65 36.2025L42.1889 36.068C50.8644 33.9015 59.9324 33.8431 68.6351 35.8976C75.0991 37.4235 81.2403 40.0867 86.7719 43.7627L91.1634 46.6811C93.16 48.008 95.8667 46.9205 96.3903 44.5811L97.8538 38.0423C99.1272 32.3527 96.5122 26.5023 91.4235 23.6565C84.4175 19.7383 76.7547 17.1328 68.8124 15.9681L66.8151 15.6752C59.2417 14.5646 51.5449 14.5913 43.9794 15.7544L43.1133 15.8876C35.1751 17.108 27.4812 19.5817 20.3193 23.2162C14.2254 26.3087 10.9523 33.0946 12.3257 39.7888Z" fill="#FF3A0A"/>
</svg>
