<svg width="179" height="161" viewBox="0 0 179 161" fill="none" xmlns="http://www.w3.org/2000/svg">
<rect x="34.5" width="110" height="110" rx="10" fill="#FF3A0A"/>
<path d="M80.2959 83.3308L77.2533 85.5965C76.4839 86.1694 76.3909 87.287 77.0549 87.9793L79.9634 91.0115C81.347 92.4539 83.0362 93.568 84.907 94.2719C87.8724 95.3876 91.1449 95.412 94.1284 94.3456C96.2238 93.5966 98.1051 92.3363 99.5931 90.6817L102.176 87.8097C102.729 87.1949 102.649 86.2411 102.001 85.7268L99.3492 83.6202C98.0095 82.5562 96.5041 81.7195 94.8932 81.1437C91.4111 79.8991 87.5934 79.9333 84.1325 81.2354C82.7629 81.7508 81.4696 82.4568 80.2959 83.3308Z" fill="white"/>
<path d="M57.0181 67.1331L61.0574 76.0366C61.8058 77.6863 63.8717 78.246 65.3506 77.1998L68.866 74.7129C72.9275 71.8397 77.5304 69.8217 82.3954 68.7813L83.2434 68.6C87.8809 67.6082 92.6785 67.6347 97.3049 68.6775C102.21 69.7831 106.795 72.0023 110.704 75.1634L113.303 77.2642C114.516 78.2447 116.329 77.797 116.946 76.3648L121.737 65.2495C122.584 63.2842 122.092 60.9981 120.512 59.5548L119.139 58.3003C114.064 53.6642 107.943 50.3241 101.298 48.5647C94.0809 46.654 86.4891 46.6717 79.2814 48.616L77.9624 48.9719C72.3959 50.4735 67.1473 52.971 62.4709 56.3434L59.2759 58.6474C56.5992 60.5778 55.6546 64.1277 57.0181 67.1331Z" fill="white"/>
<path d="M46.8257 39.7888L47.6545 43.8284C48.2196 46.583 51.32 47.9715 53.7514 46.559L60.9861 42.3561C65.7263 39.6023 70.8312 37.5307 76.15 36.2025L76.6889 36.068C85.3644 33.9015 94.4324 33.8431 103.135 35.8976C109.599 37.4235 115.74 40.0867 121.272 43.7627L125.663 46.6811C127.66 48.008 130.367 46.9205 130.89 44.5811L132.354 38.0423C133.627 32.3527 131.012 26.5023 125.924 23.6565C118.917 19.7383 111.255 17.1328 103.312 15.9681L101.315 15.6752C93.7417 14.5646 86.0449 14.5913 78.4794 15.7544L77.6133 15.8876C69.6751 17.108 61.9812 19.5817 54.8193 23.2162C48.7254 26.3087 45.4523 33.0946 46.8257 39.7888Z" fill="white"/>
<path d="M6.78835 160H0.856534L9.89489 133.818H17.0284L26.054 160H20.1222L13.5639 139.801H13.3594L6.78835 160ZM6.41761 149.709H20.429V154.03H6.41761V149.709ZM44.984 145.963L39.9982 146.27C39.913 145.844 39.7298 145.46 39.4485 145.119C39.1673 144.77 38.7965 144.493 38.3363 144.288C37.8846 144.075 37.3434 143.969 36.7127 143.969C35.869 143.969 35.1573 144.148 34.5778 144.506C33.9982 144.855 33.7085 145.324 33.7085 145.912C33.7085 146.381 33.896 146.777 34.271 147.101C34.646 147.425 35.2894 147.685 36.2014 147.881L39.7553 148.597C41.6644 148.989 43.0877 149.619 44.0252 150.489C44.9627 151.358 45.4315 152.5 45.4315 153.915C45.4315 155.202 45.0522 156.331 44.2937 157.303C43.5437 158.274 42.5124 159.033 41.1999 159.578C39.896 160.115 38.3917 160.384 36.6871 160.384C34.0877 160.384 32.0167 159.842 30.4741 158.76C28.94 157.669 28.0408 156.186 27.7766 154.311L33.1332 154.03C33.2951 154.822 33.6871 155.428 34.3093 155.845C34.9315 156.254 35.7283 156.459 36.6999 156.459C37.6545 156.459 38.4215 156.276 39.0011 155.909C39.5891 155.534 39.8874 155.053 39.896 154.464C39.8874 153.97 39.6786 153.565 39.2695 153.25C38.8604 152.926 38.2298 152.679 37.3775 152.509L33.9769 151.831C32.0593 151.447 30.6317 150.783 29.6942 149.837C28.7653 148.891 28.3008 147.685 28.3008 146.219C28.3008 144.957 28.6417 143.871 29.3235 142.959C30.0138 142.047 30.9812 141.344 32.2255 140.849C33.4783 140.355 34.9442 140.108 36.6232 140.108C39.1033 140.108 41.055 140.632 42.4783 141.68C43.9102 142.729 44.7454 144.156 44.984 145.963ZM48.8608 160V140.364H54.3068V160H48.8608ZM51.5966 137.832C50.7869 137.832 50.0923 137.564 49.5128 137.027C48.9418 136.482 48.6562 135.83 48.6562 135.071C48.6562 134.321 48.9418 133.678 49.5128 133.141C50.0923 132.595 50.7869 132.322 51.5966 132.322C52.4063 132.322 53.0966 132.595 53.6676 133.141C54.2472 133.678 54.5369 134.321 54.5369 135.071C54.5369 135.83 54.2472 136.482 53.6676 137.027C53.0966 137.564 52.4063 137.832 51.5966 137.832ZM64.2688 160.371C63.016 160.371 61.8995 160.153 60.9194 159.719C59.9393 159.276 59.1637 158.624 58.5927 157.763C58.0302 156.893 57.7489 155.811 57.7489 154.516C57.7489 153.425 57.9492 152.509 58.3498 151.767C58.7504 151.026 59.2958 150.429 59.9862 149.977C60.6765 149.526 61.4606 149.185 62.3384 148.955C63.2248 148.724 64.1538 148.562 65.1254 148.469C66.2674 148.349 67.1879 148.239 67.8867 148.136C68.5856 148.026 69.0927 147.864 69.408 147.651C69.7234 147.437 69.881 147.122 69.881 146.705V146.628C69.881 145.818 69.6254 145.192 69.114 144.749C68.6112 144.305 67.8952 144.084 66.9663 144.084C65.9862 144.084 65.2063 144.301 64.6268 144.736C64.0472 145.162 63.6637 145.699 63.4762 146.347L58.4393 145.938C58.695 144.744 59.1978 143.713 59.9478 142.844C60.6978 141.966 61.6651 141.293 62.8498 140.824C64.043 140.347 65.4237 140.108 66.9918 140.108C68.0827 140.108 69.1268 140.236 70.1239 140.491C71.1296 140.747 72.0202 141.143 72.7958 141.68C73.5799 142.217 74.1978 142.908 74.6495 143.751C75.1012 144.587 75.3271 145.588 75.3271 146.756V160H70.1623V157.277H70.0089C69.6935 157.891 69.2717 158.432 68.7433 158.901C68.2148 159.361 67.5799 159.723 66.8384 159.987C66.0969 160.243 65.2404 160.371 64.2688 160.371ZM65.8285 156.612C66.6296 156.612 67.337 156.455 67.9506 156.139C68.5643 155.815 69.0458 155.381 69.3952 154.835C69.7447 154.29 69.9194 153.672 69.9194 152.982V150.898C69.7489 151.009 69.5146 151.111 69.2163 151.205C68.9265 151.29 68.5984 151.371 68.2319 151.447C67.8654 151.516 67.4989 151.58 67.1325 151.639C66.766 151.69 66.4336 151.737 66.1353 151.78C65.4961 151.874 64.9379 152.023 64.4606 152.227C63.9833 152.432 63.6126 152.709 63.3484 153.058C63.0842 153.399 62.9521 153.825 62.9521 154.337C62.9521 155.078 63.2205 155.645 63.7575 156.037C64.3029 156.42 64.9933 156.612 65.8285 156.612ZM84.9982 148.648V160H79.5522V140.364H84.7425V143.828H84.9727C85.4073 142.686 86.136 141.783 87.1587 141.118C88.1815 140.445 89.4215 140.108 90.8789 140.108C92.2425 140.108 93.4315 140.406 94.4457 141.003C95.4599 141.599 96.2482 142.452 96.8107 143.56C97.3732 144.659 97.6545 145.972 97.6545 147.497V160H92.2085V148.469C92.217 147.267 91.9102 146.33 91.288 145.656C90.6658 144.974 89.8093 144.634 88.7184 144.634C87.9854 144.634 87.3377 144.791 86.7752 145.107C86.2212 145.422 85.7866 145.882 85.4712 146.487C85.1644 147.084 85.0067 147.804 84.9982 148.648ZM110.896 160.384C108.876 160.384 107.137 159.974 105.68 159.156C104.231 158.33 103.114 157.162 102.33 155.653C101.546 154.136 101.154 152.342 101.154 150.271C101.154 148.251 101.546 146.479 102.33 144.953C103.114 143.428 104.218 142.239 105.641 141.386C107.073 140.534 108.752 140.108 110.678 140.108C111.974 140.108 113.18 140.317 114.296 140.734C115.421 141.143 116.401 141.761 117.237 142.588C118.08 143.415 118.737 144.455 119.205 145.707C119.674 146.952 119.908 148.409 119.908 150.08V151.575H103.327V148.2H114.782C114.782 147.416 114.612 146.722 114.271 146.116C113.93 145.511 113.457 145.038 112.852 144.697C112.255 144.348 111.56 144.173 110.768 144.173C109.941 144.173 109.208 144.365 108.569 144.749C107.938 145.124 107.444 145.631 107.086 146.27C106.728 146.901 106.545 147.604 106.536 148.379V151.588C106.536 152.56 106.715 153.399 107.073 154.107C107.44 154.814 107.955 155.359 108.62 155.743C109.285 156.126 110.073 156.318 110.985 156.318C111.59 156.318 112.144 156.233 112.647 156.062C113.15 155.892 113.58 155.636 113.938 155.295C114.296 154.955 114.569 154.537 114.756 154.043L119.793 154.375C119.538 155.585 119.013 156.642 118.221 157.545C117.437 158.44 116.423 159.139 115.178 159.642C113.942 160.136 112.515 160.384 110.896 160.384ZM133.907 140.364V144.455H122.082V140.364H133.907ZM124.766 135.659H130.212V153.966C130.212 154.469 130.289 154.861 130.442 155.142C130.596 155.415 130.809 155.607 131.082 155.717C131.363 155.828 131.687 155.884 132.053 155.884C132.309 155.884 132.565 155.862 132.82 155.82C133.076 155.768 133.272 155.73 133.408 155.705L134.265 159.757C133.992 159.842 133.609 159.94 133.114 160.051C132.62 160.17 132.019 160.243 131.312 160.268C129.999 160.32 128.849 160.145 127.86 159.744C126.88 159.344 126.117 158.722 125.572 157.878C125.026 157.034 124.758 155.969 124.766 154.682V135.659ZM140.638 160.332C139.794 160.332 139.07 160.034 138.464 159.438C137.868 158.832 137.57 158.108 137.57 157.264C137.57 156.429 137.868 155.713 138.464 155.116C139.07 154.52 139.794 154.222 140.638 154.222C141.456 154.222 142.172 154.52 142.786 155.116C143.399 155.713 143.706 156.429 143.706 157.264C143.706 157.827 143.561 158.342 143.271 158.811C142.99 159.271 142.619 159.642 142.159 159.923C141.699 160.196 141.192 160.332 140.638 160.332ZM148.177 160V140.364H153.623V160H148.177ZM150.913 137.832C150.103 137.832 149.409 137.564 148.829 137.027C148.258 136.482 147.973 135.83 147.973 135.071C147.973 134.321 148.258 133.678 148.829 133.141C149.409 132.595 150.103 132.322 150.913 132.322C151.723 132.322 152.413 132.595 152.984 133.141C153.564 133.678 153.853 134.321 153.853 135.071C153.853 135.83 153.564 136.482 152.984 137.027C152.413 137.564 151.723 137.832 150.913 137.832ZM165.222 160.32C163.73 160.32 162.379 159.936 161.169 159.169C159.967 158.393 159.013 157.256 158.305 155.756C157.607 154.247 157.257 152.398 157.257 150.207C157.257 147.957 157.619 146.087 158.344 144.595C159.068 143.095 160.031 141.974 161.233 141.233C162.443 140.483 163.768 140.108 165.209 140.108C166.308 140.108 167.224 140.295 167.957 140.67C168.699 141.037 169.295 141.497 169.747 142.051C170.207 142.597 170.557 143.134 170.795 143.662H170.962V133.818H176.395V160H171.026V156.855H170.795C170.54 157.401 170.178 157.942 169.709 158.479C169.249 159.007 168.648 159.446 167.906 159.795C167.173 160.145 166.278 160.32 165.222 160.32ZM166.947 155.986C167.825 155.986 168.567 155.747 169.172 155.27C169.786 154.784 170.254 154.107 170.578 153.237C170.911 152.368 171.077 151.349 171.077 150.182C171.077 149.014 170.915 148 170.591 147.139C170.267 146.278 169.798 145.614 169.185 145.145C168.571 144.676 167.825 144.442 166.947 144.442C166.053 144.442 165.298 144.685 164.685 145.17C164.071 145.656 163.607 146.33 163.291 147.19C162.976 148.051 162.818 149.048 162.818 150.182C162.818 151.324 162.976 152.334 163.291 153.212C163.615 154.081 164.08 154.763 164.685 155.257C165.298 155.743 166.053 155.986 166.947 155.986Z" fill="white"/>
</svg>
